<svg width="394" height="375" viewBox="0 0 394 375" fill="none" xmlns="http://www.w3.org/2000/svg">
<rect width="394" height="375" fill="#E5E5E5"/>
<path d="M61.135 204.739L88.8979 83.6321L207.282 45.9104L297.865 129.261L270.102 250.368L151.718 288.09L61.135 204.739Z" stroke="black" stroke-width="5"/>
<path d="M79.6877 220.88L107.451 99.773L225.834 62.0512L316.418 145.402L288.655 266.509L170.271 304.23L79.6877 220.88Z" stroke="black" stroke-width="5"/>
<path d="M9 341.5V373H6.6V340.6C6.6 338.68 6.18 337.2 5.34 336.16C4.54 335.12 3.16 334.6 1.2 334.6H0.6V333.4H4.5C6.34 333.4 7.9 333.7 9.18 334.3C10.46 334.9 11.6 335.8 12.6 337L33.6 363.1V333.4H36V373.6H34.8L9 341.5ZM78.0427 373.3C76.1227 373.3 74.2227 372.78 72.3427 371.74C70.4627 370.66 68.9627 368.58 67.8427 365.5L66.3427 361.6H49.5427L44.7427 373H42.0427L58.8427 333.4H60.6427L73.8427 365.5C74.8427 367.82 75.7827 369.42 76.6627 370.3C77.5427 371.14 78.8027 371.64 80.4427 371.8V373C79.7227 373.2 78.9227 373.3 78.0427 373.3ZM65.1427 359.2L57.9427 341.8L50.4427 359.2H65.1427ZM85.1686 340.6C85.1686 338.56 84.8886 337.06 84.3286 336.1C83.7686 335.1 82.6486 334.6 80.9686 334.6H79.7686V333.4H95.3686C99.7286 333.4 103.509 334.12 106.709 335.56C109.949 337 111.569 339.78 111.569 343.9C111.569 345.78 110.929 347.48 109.649 349C108.369 350.52 106.409 351.72 103.769 352.6C107.449 353.2 110.009 354.3 111.449 355.9C112.929 357.46 113.669 359.56 113.669 362.2C113.669 366.24 112.069 369.06 108.869 370.66C105.709 372.22 101.809 373 97.1686 373H85.1686V340.6ZM96.2686 351.7C97.9086 351.7 99.4486 351.4 100.889 350.8C102.369 350.16 103.569 349.24 104.489 348.04C105.409 346.8 105.869 345.32 105.869 343.6C105.869 341.8 105.329 340.3 104.249 339.1C103.169 337.86 101.789 336.96 100.109 336.4C98.4686 335.8 96.7886 335.5 95.0686 335.5C93.6686 335.5 92.1686 335.7 90.5686 336.1V351.7H96.2686ZM96.2686 370.9C99.9086 370.9 102.709 370.18 104.669 368.74C106.669 367.3 107.669 365.22 107.669 362.5C107.669 359.78 106.689 357.7 104.729 356.26C102.809 354.82 99.9886 354.1 96.2686 354.1H90.5686V370.06C92.4886 370.62 94.3886 370.9 96.2686 370.9ZM126.873 373C125.393 373 124.273 372.82 123.513 372.46C122.793 372.06 122.273 371.36 121.953 370.36C121.633 369.36 121.473 367.84 121.473 365.8V333.4H126.873V365.8C126.873 367.84 127.153 369.36 127.713 370.36C128.273 371.32 129.393 371.8 131.073 371.8H132.273V373H126.873ZM170.562 373.3C168.642 373.3 166.742 372.78 164.862 371.74C162.982 370.66 161.482 368.58 160.362 365.5L158.862 361.6H142.062L137.262 373H134.562L151.362 333.4H153.162L166.362 365.5C167.362 367.82 168.302 369.42 169.182 370.3C170.062 371.14 171.322 371.64 172.962 371.8V373C172.242 373.2 171.442 373.3 170.562 373.3ZM157.662 359.2L150.462 341.8L142.962 359.2H157.662ZM203.248 374.02C201.048 374.02 198.888 373.72 196.768 373.12C194.648 372.52 192.908 371.66 191.548 370.54C190.228 369.42 189.568 368.14 189.568 366.7V360.28H190.648C191.328 364.28 192.648 367.18 194.608 368.98C196.568 370.74 199.268 371.62 202.708 371.62C204.868 371.62 206.708 371.08 208.228 370C209.788 368.92 210.568 367.42 210.568 365.5C210.568 363.82 210.048 362.36 209.008 361.12C207.968 359.88 206.288 358.58 203.968 357.22L196.588 352.84C194.028 351.32 192.208 349.78 191.128 348.22C190.088 346.66 189.568 344.76 189.568 342.52C189.568 339.44 190.628 336.98 192.748 335.14C194.908 333.26 197.728 332.32 201.208 332.32C203.248 332.32 205.268 332.62 207.268 333.22C209.268 333.78 210.908 334.62 212.188 335.74C213.508 336.82 214.168 338.08 214.168 339.52V345.94H213.088C212.408 341.94 211.108 339.08 209.188 337.36C207.308 335.6 204.648 334.72 201.208 334.72C199.368 334.72 197.748 335.28 196.348 336.4C194.948 337.52 194.248 338.98 194.248 340.78C194.248 342.42 194.748 343.78 195.748 344.86C196.788 345.94 198.508 347.2 200.908 348.64L208.288 353.02C211.008 354.66 212.928 356.18 214.048 357.58C215.168 358.98 215.728 360.76 215.728 362.92C215.728 366.28 214.608 368.98 212.368 371.02C210.128 373.02 207.088 374.02 203.248 374.02ZM224.68 340.6C224.68 338.56 224.4 337.06 223.84 336.1C223.28 335.1 222.16 334.6 220.48 334.6H219.28V333.4H224.68C226.16 333.4 227.26 333.6 227.98 334C228.74 334.36 229.28 335.04 229.6 336.04C229.92 337.04 230.08 338.56 230.08 340.6V351.4H248.08V333.4H253.48V365.8C253.48 367.84 253.76 369.36 254.32 370.36C254.88 371.32 256 371.8 257.68 371.8H258.88V373H253.48C252 373 250.88 372.82 250.12 372.46C249.4 372.06 248.88 371.36 248.56 370.36C248.24 369.36 248.08 367.84 248.08 365.8V353.8H230.08V373H224.68V340.6ZM266.282 340.6C266.282 338.56 266.002 337.06 265.442 336.1C264.882 335.1 263.762 334.6 262.082 334.6H260.882V333.4H286.442C289.842 333.4 291.542 335 291.542 338.2V342.7H290.342C290.342 338.1 287.842 335.8 282.842 335.8H271.682V351.4H287.882V353.8H271.682V370.6H282.182C284.942 370.6 287.102 370.1 288.662 369.1C290.222 368.1 291.462 366.4 292.382 364L293.582 364.3L291.482 370C290.762 372 289.262 373 286.982 373H266.282V340.6ZM306.053 373C304.573 373 303.453 372.82 302.693 372.46C301.973 372.06 301.453 371.36 301.133 370.36C300.813 369.36 300.653 367.84 300.653 365.8V333.4H306.053V365.8C306.053 367.84 306.333 369.36 306.893 370.36C307.453 371.32 308.573 371.8 310.253 371.8H311.453V373H306.053ZM349.682 373.6C347.802 373.6 345.842 373.1 343.802 372.1C341.762 371.06 339.422 369.16 336.782 366.4L324.182 353.2V373H318.782V340.6C318.782 338.56 318.502 337.06 317.942 336.1C317.382 335.1 316.262 334.6 314.582 334.6H313.382V333.4H318.782C320.262 333.4 321.362 333.6 322.082 334C322.842 334.36 323.382 335.04 323.702 336.04C324.022 337.04 324.182 338.56 324.182 340.6V352.3L336.782 339.7L337.982 338.44C339.102 337.28 340.042 336.38 340.802 335.74C341.562 335.06 342.462 334.5 343.502 334.06C344.542 333.62 345.702 333.4 346.982 333.4H349.982V334.9C348.302 334.9 346.842 335.2 345.602 335.8C344.362 336.36 342.922 337.46 341.282 339.1L329.582 350.8L343.382 365.2C345.142 367 346.922 368.52 348.722 369.76C350.522 370.96 352.142 371.66 353.582 371.86V373C352.382 373.4 351.082 373.6 349.682 373.6ZM359.387 340.6C359.387 338.56 359.107 337.06 358.547 336.1C357.987 335.1 356.867 334.6 355.187 334.6H353.987V333.4H359.387C360.867 333.4 361.967 333.6 362.687 334C363.447 334.36 363.987 335.04 364.307 336.04C364.627 337.04 364.787 338.56 364.787 340.6V351.4H382.787V333.4H388.187V365.8C388.187 367.84 388.467 369.36 389.027 370.36C389.587 371.32 390.707 371.8 392.387 371.8H393.587V373H388.187C386.707 373 385.587 372.82 384.827 372.46C384.107 372.06 383.587 371.36 383.267 370.36C382.947 369.36 382.787 367.84 382.787 365.8V353.8H364.787V373H359.387V340.6Z" fill="black"/>
<path d="M173.594 208V211H176.594V208H173.594ZM159.531 208L156.97 209.562L157.847 211H159.531V208ZM132.156 163.094L134.718 161.532L129.156 152.409V163.094H132.156ZM132.156 208V211H135.156V208H132.156ZM118.094 208H115.094V211H118.094V208ZM118.094 139.75V136.75H115.094V139.75H118.094ZM132.156 139.75L134.718 138.189L133.841 136.75H132.156V139.75ZM159.578 184.75L157.016 186.311L162.578 195.438V184.75H159.578ZM159.578 139.75V136.75H156.578V139.75H159.578ZM173.594 139.75H176.594V136.75H173.594V139.75ZM173.594 205H159.531V211H173.594V205ZM162.093 206.438L134.718 161.532L129.595 164.655L156.97 209.562L162.093 206.438ZM129.156 163.094V208H135.156V163.094H129.156ZM132.156 205H118.094V211H132.156V205ZM121.094 208V139.75H115.094V208H121.094ZM118.094 142.75H132.156V136.75H118.094V142.75ZM129.594 141.311L157.016 186.311L162.14 183.189L134.718 138.189L129.594 141.311ZM162.578 184.75V139.75H156.578V184.75H162.578ZM159.578 142.75H173.594V136.75H159.578V142.75ZM170.594 139.75V208H176.594V139.75H170.594Z" fill="black"/>
<path d="M233.193 183.565L231.657 186.142L231.686 186.16L231.716 186.176L233.193 183.565ZM222.447 180.047L221.831 182.983L221.839 182.985L222.447 180.047ZM205.369 143.715L207.252 146.05L207.255 146.048L205.369 143.715ZM246.434 143.715L244.576 146.071L244.586 146.078L246.434 143.715ZM254.366 159.834V162.834H257.366V159.834H254.366ZM235.88 159.834H232.88V162.834H235.88V159.834ZM233.321 153.31L231.174 155.405L231.187 155.418L231.2 155.431L233.321 153.31ZM218.417 163.161L216.753 165.657L216.785 165.678L216.818 165.698L218.417 163.161ZM228.268 166.423L227.669 169.362L227.682 169.365L227.695 169.368L228.268 166.423ZM239.91 169.493L240.943 166.677L240.938 166.675L239.91 169.493ZM246.434 203.458L248.181 205.897L248.188 205.893L248.194 205.888L246.434 203.458ZM209.974 206.209L208.705 208.928L208.721 208.935L208.737 208.942L209.974 206.209ZM199.42 197.702L196.969 199.432L196.974 199.439L196.979 199.445L199.42 197.702ZM195.582 185.996V182.996H192.582V185.996H195.582ZM213.108 185.996L216.104 185.84L215.957 182.996H213.108V185.996ZM216.754 193.544L214.919 195.917L216.754 193.544ZM233.833 194.184L235.615 196.597L235.624 196.59L233.833 194.184ZM239.583 188.875C239.583 185.353 237.703 182.671 234.671 180.955L231.716 186.176C233.203 187.018 233.583 187.876 233.583 188.875H239.583ZM234.73 180.989C232.066 179.401 228.078 178.149 223.055 177.11L221.839 182.985C226.71 183.993 229.886 185.086 231.657 186.142L234.73 180.989ZM223.063 177.111C215.075 175.435 209.451 172.967 205.872 169.926C202.408 166.982 200.757 163.428 200.757 159.067H194.757C194.757 165.239 197.221 170.448 201.987 174.498C206.638 178.45 213.359 181.206 221.831 182.983L223.063 177.111ZM200.757 159.067C200.757 153.896 202.834 149.615 207.252 146.05L203.485 141.38C197.755 146.003 194.757 151.957 194.757 159.067H200.757ZM207.255 146.048C211.715 142.443 217.67 140.511 225.39 140.511V134.511C216.649 134.511 209.256 136.715 203.483 141.382L207.255 146.048ZM225.39 140.511C233.713 140.511 240.007 142.467 244.576 146.071L248.292 141.36C242.371 136.691 234.635 134.511 225.39 134.511V140.511ZM244.586 146.078C249.16 149.656 251.366 154.164 251.366 159.834H257.366C257.366 152.285 254.284 146.047 248.282 141.352L244.586 146.078ZM254.366 156.834H235.88V162.834H254.366V156.834ZM238.88 159.834C238.88 156.479 237.768 153.514 235.443 151.189L231.2 155.431C232.286 156.518 232.88 157.902 232.88 159.834H238.88ZM235.469 151.215C232.974 148.658 229.369 147.688 225.326 147.688V153.688C228.532 153.688 230.257 154.465 231.174 155.405L235.469 151.215ZM225.326 147.688C221.796 147.688 218.614 148.483 216.189 150.484L220.007 155.112C220.993 154.299 222.629 153.688 225.326 153.688V147.688ZM216.189 150.484C213.805 152.45 212.539 155.084 212.539 158.171H218.539C218.539 156.909 218.978 155.961 220.007 155.112L216.189 150.484ZM212.539 158.171C212.539 161.362 214.124 163.904 216.753 165.657L220.082 160.664C218.873 159.859 218.539 159.075 218.539 158.171H212.539ZM216.818 165.698C219.263 167.24 222.997 168.411 227.669 169.362L228.867 163.483C224.328 162.559 221.496 161.555 220.017 160.623L216.818 165.698ZM227.695 169.368C232.202 170.244 235.919 171.231 238.881 172.311L240.938 166.675C237.589 165.453 233.545 164.393 228.841 163.478L227.695 169.368ZM238.877 172.31C243.399 173.969 246.534 176.141 248.538 178.688C250.514 181.199 251.558 184.282 251.558 188.107H257.558C257.558 183.104 256.16 178.671 253.253 174.978C250.375 171.321 246.186 168.6 240.943 166.677L238.877 172.31ZM251.558 188.107C251.558 193.391 249.365 197.631 244.674 201.029L248.194 205.888C254.334 201.44 257.558 195.445 257.558 188.107H251.558ZM244.687 201.02C239.909 204.443 233.578 206.279 225.454 206.279V212.279C234.472 212.279 242.127 210.235 248.181 205.897L244.687 201.02ZM225.454 206.279C220.01 206.279 215.283 205.32 211.212 203.476L208.737 208.942C213.706 211.192 219.299 212.279 225.454 212.279V206.279ZM211.243 203.49C207.175 201.592 204.084 199.07 201.861 195.958L196.979 199.445C199.873 203.497 203.818 206.647 208.705 208.928L211.243 203.49ZM201.871 195.972C199.646 192.82 198.582 189.516 198.582 185.996H192.582C192.582 190.834 194.076 195.334 196.969 199.432L201.871 195.972ZM195.582 188.996H213.108V182.996H195.582V188.996ZM210.112 186.152C210.321 190.162 211.859 193.55 214.919 195.917L218.59 191.171C217.129 190.041 216.237 188.397 216.104 185.84L210.112 186.152ZM214.919 195.917C217.854 198.187 221.595 199.167 225.837 199.167V193.167C222.489 193.167 220.175 192.397 218.59 191.171L214.919 195.917ZM225.837 199.167C229.667 199.167 233.083 198.466 235.615 196.597L232.051 191.77C231.001 192.545 229.086 193.167 225.837 193.167V199.167ZM235.624 196.59C238.173 194.693 239.583 192.053 239.583 188.875H233.583C233.583 190.046 233.16 190.945 232.042 191.777L235.624 196.59Z" fill="black"/>
</svg>
